<svg width="25" height="24" viewBox="0 0 25 24" fill="none" xmlns="http://www.w3.org/2000/svg">
<path d="M5.69001 6.37994C5.50001 6.37994 5.3 6.29994 5.16 6.15994C4.87 5.86994 4.87 5.38994 5.16 5.09994L8.79 1.46994C9.08001 1.17994 9.56001 1.17994 9.85001 1.46994C10.14 1.75994 10.14 2.23994 9.85001 2.52994L6.22 6.15994C6.07 6.29994 5.88001 6.37994 5.69001 6.37994Z" fill="#1F2324"/>
<path d="M19.31 6.37994C19.12 6.37994 18.93 6.30994 18.78 6.15994L15.15 2.52994C14.86 2.23994 14.86 1.75994 15.15 1.46994C15.44 1.17994 15.92 1.17994 16.21 1.46994L19.84 5.09994C20.13 5.38994 20.13 5.86994 19.84 6.15994C19.7 6.29994 19.5 6.37994 19.31 6.37994Z" fill="#1F2324"/>
<path d="M20.71 10.6C20.64 10.6 20.57 10.6 20.5 10.6H20.27H4.5C3.8 10.61 3 10.61 2.42 10.03C1.96 9.57998 1.75 8.87998 1.75 7.84998C1.75 5.09998 3.76 5.09998 4.72 5.09998H20.28C21.24 5.09998 23.25 5.09998 23.25 7.84998C23.25 8.88998 23.04 9.57998 22.58 10.03C22.06 10.55 21.36 10.6 20.71 10.6ZM4.72 9.09998H20.51C20.96 9.10998 21.38 9.10998 21.52 8.96998C21.59 8.89998 21.74 8.65998 21.74 7.84998C21.74 6.71998 21.46 6.59998 20.27 6.59998H4.72C3.53 6.59998 3.25 6.71998 3.25 7.84998C3.25 8.65998 3.41 8.89998 3.47 8.96998C3.61 9.09998 4.04 9.09998 4.48 9.09998H4.72Z" fill="#1F2324"/>
<path d="M10.26 18.3C9.85001 18.3 9.51001 17.96 9.51001 17.55V14C9.51001 13.59 9.85001 13.25 10.26 13.25C10.67 13.25 11.01 13.59 11.01 14V17.55C11.01 17.97 10.67 18.3 10.26 18.3Z" fill="#1F2324"/>
<path d="M14.86 18.3C14.45 18.3 14.11 17.96 14.11 17.55V14C14.11 13.59 14.45 13.25 14.86 13.25C15.27 13.25 15.61 13.59 15.61 14V17.55C15.61 17.97 15.27 18.3 14.86 18.3Z" fill="#1F2324"/>
<path d="M15.39 22.75H9.36C5.78 22.75 4.98 20.62 4.67 18.77L3.26 10.12C3.19 9.71 3.47 9.33 3.88 9.26C4.29 9.19 4.67 9.47 4.74 9.88L6.15 18.52C6.44 20.29 7.04 21.25 9.36 21.25H15.39C17.96 21.25 18.25 20.35 18.58 18.61L20.26 9.86C20.34 9.45 20.73 9.18 21.14 9.27C21.55 9.35 21.81 9.74 21.73 10.15L20.05 18.9C19.66 20.93 19.01 22.75 15.39 22.75Z" fill="#1F2324"/>
</svg>
