<svg width="37" height="37" viewBox="0 0 37 37" fill="none" xmlns="http://www.w3.org/2000/svg">
<g clip-path="url(#clip0_2_1025)">
<path d="M18.5 37C28.7012 37 37 28.7012 37 18.5C37 8.29879 28.7012 0 18.5 0C8.29879 0 0 8.29879 0 18.5C0 28.7012 8.29879 37 18.5 37ZM18.5 2.3125C27.4262 2.3125 34.6875 9.57375 34.6875 18.5C34.6875 27.4262 27.4262 34.6875 18.5 34.6875C9.57375 34.6875 2.3125 27.4262 2.3125 18.5C2.3125 9.57375 9.57375 2.3125 18.5 2.3125Z" fill="#969696"/>
<path d="M12.1729 21.8222L14.5903 20.7724L13.9119 21.4522C13.6946 21.6696 13.5728 21.9641 13.5728 22.2693V26.7941C13.5728 27.8301 14.8246 28.3327 15.5461 27.6112L17.9727 25.1846L23.2606 27.8286C23.9451 28.1708 24.773 27.7654 24.9148 27.0007L27.9319 10.4108C28.0907 9.51818 27.2119 8.79668 26.3717 9.12659L6.76786 16.7995C5.88911 17.1417 5.77195 18.3442 6.56745 18.8514L11.0907 21.7374C11.4144 21.944 11.823 21.9764 12.1729 21.8222ZM25.2864 12.0373L22.9168 25.0721L18.261 22.7457C17.8108 22.5206 17.2743 22.6146 16.9274 22.9631L15.8853 24.0052V22.7519L20.5211 18.1161C21.4199 17.2173 20.4085 15.7342 19.243 16.2383L11.8168 19.4604L9.72941 18.1284L25.2864 12.0373Z" fill="#969696"/>
</g>
<defs>
<clipPath id="clip0_2_1025">
<rect width="37" height="37" fill="white"/>
</clipPath>
</defs>
</svg>
