<svg width="38" height="37" viewBox="0 0 38 37" fill="none" xmlns="http://www.w3.org/2000/svg">
<path d="M11.1493 31.8046C13.431 33.1459 16.098 33.9167 18.9501 33.9167C27.4601 33.9167 34.3668 27.01 34.3668 18.5C34.3668 9.99004 27.4601 3.08337 18.9501 3.08337C10.4401 3.08337 3.53345 9.99004 3.53345 18.5C3.53345 21.3059 4.28891 23.9421 5.59932 26.2084L3.53345 33.9167L11.1493 31.8046Z" stroke="#969696" stroke-width="2.775" stroke-miterlimit="10" stroke-linecap="round" stroke-linejoin="round"/>
<path d="M26.6586 23.3871C26.6586 23.6646 26.5969 23.9575 26.4582 24.235C26.3194 24.5125 26.1499 24.7746 25.9341 25.0212C25.5487 25.4375 25.1324 25.7458 24.6699 25.9308C24.2074 26.1312 23.6986 26.2237 23.159 26.2237C22.3727 26.2237 21.5248 26.0387 20.6461 25.6533C19.7519 25.2679 18.8732 24.7591 17.9945 24.127C17.1003 23.4795 16.2678 22.755 15.4661 21.9687C14.6644 21.167 13.9553 20.3191 13.3078 19.4403C12.6757 18.5616 12.1669 17.6829 11.7969 16.8041C11.4269 15.9254 11.2419 15.0775 11.2419 14.2758C11.2419 13.7516 11.3344 13.2429 11.5194 12.7804C11.7044 12.3025 11.9974 11.8708 12.4136 11.4854C12.907 10.9921 13.4465 10.7608 14.0169 10.7608C14.2328 10.7608 14.4486 10.807 14.6491 10.8995C14.8495 10.992 15.0344 11.1308 15.1732 11.3312L16.9616 13.8595C17.1003 14.0599 17.2082 14.2295 17.2698 14.3991C17.3469 14.5687 17.3777 14.7229 17.3777 14.877C17.3777 15.062 17.3161 15.2471 17.2082 15.4321C17.1003 15.6171 16.9616 15.802 16.7766 15.987L16.1907 16.6037C16.0982 16.6962 16.0674 16.7887 16.0674 16.912C16.0674 16.9737 16.0828 17.0354 16.0982 17.097C16.1291 17.1587 16.1444 17.205 16.1599 17.2512C16.2986 17.5133 16.5452 17.837 16.8844 18.2378C17.239 18.6387 17.609 19.0549 18.0099 19.4558C18.4261 19.872 18.8269 20.242 19.2432 20.5966C19.644 20.9358 19.9832 21.167 20.2453 21.3058C20.2916 21.3212 20.3378 21.352 20.384 21.3674C20.4457 21.3983 20.5074 21.3983 20.5844 21.3983C20.7232 21.3983 20.8157 21.3521 20.9082 21.2596L21.4941 20.6737C21.6945 20.4733 21.8795 20.3345 22.049 20.242C22.234 20.1341 22.4036 20.0724 22.604 20.0724C22.7582 20.0724 22.9123 20.1033 23.0819 20.1804C23.2515 20.2574 23.4366 20.35 23.6216 20.4887L26.1807 22.3079C26.3811 22.4466 26.5198 22.6162 26.6123 22.8012C26.6123 22.9862 26.6586 23.1712 26.6586 23.3871Z" stroke="#969696" stroke-width="2.775" stroke-miterlimit="10"/>
</svg>
